<?xml version="1.0" encoding="UTF-8" standalone="no"?>
<svg
   xmlns:dc="http://purl.org/dc/elements/1.1/"
   xmlns:cc="http://creativecommons.org/ns#"
   xmlns:rdf="http://www.w3.org/1999/02/22-rdf-syntax-ns#"
   xmlns:svg="http://www.w3.org/2000/svg"
   xmlns="http://www.w3.org/2000/svg"
   xmlns:sodipodi="http://sodipodi.sourceforge.net/DTD/sodipodi-0.dtd"
   xmlns:inkscape="http://www.inkscape.org/namespaces/inkscape"
   version="1.1"
   x="0px"
   y="0px"
   viewBox="0 0 100 100"
   enable-background="new 0 0 100 100"
   xml:space="preserve"
   id="svg4"
   sodipodi:docname="chat.svg"
   inkscape:version="1.0.2 (e86c870879, 2021-01-15)"><title
     id="title835">Speech Bubble</title><metadata
     id="metadata10"><rdf:RDF><cc:Work
         rdf:about=""><dc:format>image/svg+xml</dc:format><dc:type
           rdf:resource="http://purl.org/dc/dcmitype/StillImage" /><dc:title>Speech Bubble</dc:title><cc:license
           rdf:resource="http://creativecommons.org/publicdomain/zero/1.0/" /><dc:creator><cc:Agent><dc:title>Nice and Serious, GB</dc:title></cc:Agent></dc:creator><dc:source>https://thenounproject.com/icon/89036/</dc:source></cc:Work><cc:License
         rdf:about="http://creativecommons.org/publicdomain/zero/1.0/"><cc:permits
           rdf:resource="http://creativecommons.org/ns#Reproduction" /><cc:permits
           rdf:resource="http://creativecommons.org/ns#Distribution" /><cc:permits
           rdf:resource="http://creativecommons.org/ns#DerivativeWorks" /></cc:License></rdf:RDF></metadata><defs
     id="defs8" /><sodipodi:namedview
     pagecolor="#ffffff"
     bordercolor="#666666"
     borderopacity="1"
     objecttolerance="10"
     gridtolerance="10"
     guidetolerance="10"
     inkscape:pageopacity="0"
     inkscape:pageshadow="2"
     inkscape:window-width="1600"
     inkscape:window-height="857"
     id="namedview6"
     showgrid="false"
     inkscape:zoom="6.61"
     inkscape:cx="50"
     inkscape:cy="50"
     inkscape:window-x="0"
     inkscape:window-y="24"
     inkscape:window-maximized="1"
     inkscape:current-layer="svg4" /><path
     d="M81.7,21.7H18.2c-5.3,0-9.6,4.3-9.6,9.6v38.1c0,5.3,4.3,9.6,9.6,9.6h6.7l5.9,7.9c0.4,0.5,1.7,2,3.7,2c0.9,0,2.3-0.4,3.6-2.1  l5.9-7.8h37.7c5.3,0,9.6-4.3,9.6-9.6V31.4C91.3,26.1,87,21.7,81.7,21.7z M87.6,69.5c0,3.3-2.7,5.9-5.9,5.9H43  c-0.6,0-1.1,0.3-1.5,0.7l-6.4,8.6c-0.4,0.5-0.6,0.6-0.6,0.6c-0.1,0-0.5-0.3-0.7-0.6l-6.4-8.6c-0.3-0.5-0.9-0.7-1.5-0.7h-7.6  c-3.3,0-5.9-2.7-5.9-5.9V31.4c0-3.3,2.7-5.9,5.9-5.9h63.5c3.3,0,5.9,2.7,5.9,5.9V69.5z M76,50.8c0,1-0.8,1.8-1.8,1.8H25.5  c-1,0-1.8-0.8-1.8-1.8c0-1,0.8-1.8,1.8-1.8h48.7C75.2,48.9,76,49.7,76,50.8z M76,61.9c0,1-0.8,1.8-1.8,1.8H25.5  c-1,0-1.8-0.8-1.8-1.8c0-1,0.8-1.8,1.8-1.8h48.7C75.2,60,76,60.8,76,61.9z M23.6,39.8c0-1,0.8-1.8,1.8-1.8h29.3c1,0,1.8,0.8,1.8,1.8  c0,1-0.8,1.8-1.8,1.8H25.5C24.5,41.7,23.6,40.8,23.6,39.8z"
     id="path2" /></svg>
