<?xml version="1.0" encoding="utf-8"?>
<!-- Generator: Adobe Illustrator 16.0.3, SVG Export Plug-In . SVG Version: 6.00 Build 0)  -->
<!DOCTYPE svg PUBLIC "-//W3C//DTD SVG 1.1//EN" "http://www.w3.org/Graphics/SVG/1.1/DTD/svg11.dtd">
<svg version="1.1" id="Ebene_1" xmlns="http://www.w3.org/2000/svg" xmlns:xlink="http://www.w3.org/1999/xlink" x="0px" y="0px"
	 width="451.892px" height="121.622px" viewBox="0 0 451.892 121.622" enable-background="new 0 0 451.892 121.622"
	 xml:space="preserve">
<g>
	<path fill="#003D7C" d="M29.03,105.432c0.771,0,1.581-0.041,2.438-0.123c0.851-0.084,1.638-0.178,2.353-0.289
		c0.714-0.11,1.308-0.233,1.776-0.373c0.466-0.137,0.701-0.26,0.701-0.37v-17.51c0-0.329-0.164-0.495-0.495-0.495h-7.846
		c-0.552,0-0.827-0.274-0.827-0.826v-5.203c0-0.55,0.275-0.826,0.827-0.826h15.196c0.549,0,0.827,0.276,0.827,0.826v28.328
		c0,0.441-0.166,0.717-0.498,0.826c-0.604,0.275-1.445,0.564-2.518,0.867c-1.073,0.304-2.299,0.593-3.675,0.867
		c-1.378,0.275-2.85,0.495-4.42,0.66c-1.568,0.166-3.152,0.25-4.748,0.25c-3.855,0-7.173-0.621-9.951-1.86
		c-2.783-1.239-5.068-3.067-6.855-5.491c-1.79-2.423-3.112-5.41-3.966-8.961S6.07,88.118,6.07,83.546
		c0-4.513,0.426-8.575,1.279-12.183c0.854-3.604,2.176-6.675,3.966-9.207c1.787-2.532,4.072-4.488,6.855-5.865
		c2.778-1.375,6.096-2.064,9.951-2.064c2.422,0,4.831,0.138,7.226,0.412c2.396,0.277,4.309,0.607,5.74,0.991
		c0.275,0.055,0.414,0.304,0.414,0.743l-0.331,5.451c0,0.387-0.22,0.523-0.661,0.414c-0.715-0.166-1.555-0.344-2.519-0.537
		c-0.963-0.193-1.969-0.344-3.016-0.455c-1.046-0.109-2.092-0.206-3.137-0.289c-1.048-0.082-1.982-0.123-2.809-0.123
		c-2.754,0-5.066,0.427-6.937,1.279c-1.873,0.855-3.388,2.188-4.544,4.006c-1.156,1.816-1.982,4.172-2.478,7.062
		s-0.744,6.374-0.744,10.448c0,3.799,0.249,7.076,0.744,9.827c0.495,2.755,1.321,5.025,2.478,6.814
		c1.156,1.79,2.671,3.097,4.544,3.923C23.964,105.02,26.276,105.432,29.03,105.432z"/>
	<path fill="#004F9F" d="M125.824,58.109c-3.58,0-6.182,0.716-7.804,2.147c-1.626,1.432-2.438,3.717-2.438,6.854
		c0,0.772,0.097,1.735,0.289,2.892s0.538,2.119,1.033,2.89c0.661,1.046,1.844,2.368,3.551,3.964c1.707,1.6,3.826,3.277,6.36,5.038
		c2.313,1.597,4.183,3.099,5.614,4.501c1.432,1.404,2.615,2.796,3.552,4.172c0.826,1.268,1.375,2.547,1.653,3.84
		c0.273,1.295,0.412,2.602,0.412,3.923c0,2.534-0.399,4.667-1.196,6.401c-0.8,1.733-1.889,3.125-3.265,4.171
		s-3.013,1.79-4.913,2.229c-1.899,0.439-3.923,0.66-6.069,0.66c-1.929,0-3.938-0.123-6.031-0.371s-4.155-0.619-6.192-1.115
		c-0.277-0.055-0.414-0.301-0.414-0.742l0.331-2.395c0-0.386,0.22-0.523,0.661-0.415c2.09,0.441,4.033,0.8,5.823,1.074
		c1.787,0.276,3.728,0.413,5.822,0.413c1.651,0,3.192-0.166,4.624-0.494c1.432-0.332,2.655-0.881,3.675-1.652
		s1.816-1.789,2.395-3.057c0.578-1.266,0.867-2.835,0.867-4.708c0-1.155-0.069-2.159-0.206-3.013s-0.509-1.748-1.113-2.686
		c-0.607-0.992-1.667-2.188-3.182-3.593s-3.537-2.986-6.069-4.749c-2.312-1.596-4.406-3.248-6.277-4.955
		c-1.873-1.706-3.192-3.221-3.964-4.543c-0.772-1.266-1.281-2.546-1.527-3.84c-0.249-1.293-0.372-2.491-0.372-3.594
		c0-2.588,0.398-4.707,1.196-6.357c0.798-1.653,1.873-2.96,3.222-3.923s2.917-1.625,4.707-1.983s3.647-0.538,5.576-0.538
		c3.964,0,7.239,0.387,9.827,1.157c0.275,0.055,0.414,0.304,0.414,0.743l-0.332,2.395c0,0.112-0.054,0.235-0.163,0.372
		c-0.112,0.139-0.278,0.152-0.497,0.041c-1.266-0.384-2.78-0.673-4.542-0.867C129.1,58.206,127.422,58.109,125.824,58.109z"/>
	<path fill="#0075BF" d="M163.568,59.018c0-0.331-0.166-0.495-0.495-0.495h-11.729c-0.552,0-0.825-0.276-0.825-0.827v-1.817
		c0-0.549,0.273-0.826,0.825-0.826h28.41c0.552,0,0.827,0.277,0.827,0.826v1.817c0,0.551-0.275,0.827-0.827,0.827h-11.727
		c-0.331,0-0.495,0.165-0.495,0.495v51.37c0,0.551-0.277,0.827-0.826,0.827h-2.313c-0.551,0-0.826-0.276-0.826-0.827V59.018z"/>
	<path fill="#009FE3" d="M234.467,110.387c-0.33-1.209-14.84-77.707-15.445-79.745c-0.166-0.549-0.495-0.826-0.99-0.826h-5.865
		c-0.495,0-0.824,0.277-0.99,0.826c-0.607,1.873-15.914,78.094-16.353,79.745c-0.166,0.551,0.026,0.827,0.578,0.827h2.478
		c0.495,0,0.854-0.276,1.073-0.827c0.275-1.044,13.978-73.263,14.618-75.293c0.11-0.275,0.233-0.441,0.372-0.496
		c0.137-0.055,0.481-0.082,1.033-0.082c0.604,0,0.961,0.027,1.073,0.082c0.109,0.055,0.22,0.221,0.329,0.496
		c0.604,2.146,13.516,74.249,13.793,75.293c0.111,0.387,0.234,0.621,0.373,0.703c0.137,0.082,0.314,0.124,0.535,0.124h2.809
		C234.438,111.214,234.631,110.938,234.467,110.387z"/>
	<path fill="#0075BF" d="M273,55.053c4.184,0,7.611,0.703,10.281,2.106c2.67,1.403,4.777,3.345,6.32,5.823
		c1.539,2.477,2.586,5.409,3.137,8.796s0.826,7.033,0.826,10.943c0,3.909-0.303,7.598-0.91,11.066
		c-0.604,3.469-1.678,6.498-3.219,9.086c-1.543,2.588-3.635,4.624-6.277,6.111c-2.645,1.485-6.029,2.229-10.158,2.229h-15.445
		c-0.551,0-0.824-0.276-0.824-0.827V55.878c0-0.549,0.273-0.826,0.824-0.826H273z M289.436,82.721c0-3.688-0.234-7.021-0.703-9.994
		s-1.32-5.506-2.559-7.598c-1.238-2.093-2.963-3.717-5.162-4.873c-2.205-1.156-5.039-1.734-8.508-1.734H261.19
		c-0.33,0-0.496,0.165-0.496,0.495v48.233c0,0.33,0.137,0.496,0.412,0.496h11.482c3.355,0,6.123-0.592,8.299-1.777
		c2.176-1.183,3.896-2.877,5.162-5.078c1.266-2.203,2.148-4.844,2.643-7.93C289.188,89.879,289.436,86.465,289.436,82.721z"/>
	<path fill="#004F9F" d="M320.407,59.018c0-0.331-0.166-0.495-0.496-0.495h-11.727c-0.551,0-0.826-0.276-0.826-0.827v-1.817
		c0-0.549,0.275-0.826,0.826-0.826h28.41c0.549,0,0.826,0.277,0.826,0.826v1.817c0,0.551-0.277,0.827-0.826,0.827h-11.729
		c-0.33,0-0.496,0.165-0.496,0.495v51.37c0,0.551-0.275,0.827-0.826,0.827h-2.313c-0.551,0-0.824-0.276-0.824-0.827V59.018z"/>
	<path fill="#003D7C" d="M431.325,111.214c-0.385,0-0.646-0.095-0.783-0.289c-0.139-0.192-0.289-0.509-0.455-0.95L412.495,65.79
		c-0.223-0.604-0.412-1.046-0.578-1.321s-0.385-0.412-0.66-0.412c-0.277,0-0.441,0.081-0.496,0.246
		c-0.057,0.166-0.082,0.607-0.082,1.321l0.412,44.764c0,0.551-0.275,0.827-0.828,0.827h-6.109c-0.551,0-0.826-0.276-0.826-0.827
		V55.878c0-0.549,0.275-0.826,0.826-0.826h10.82c0.494,0,0.879,0.331,1.154,0.992l17.344,43.524
		c0.275,0.607,0.482,0.979,0.621,1.115c0.137,0.139,0.316,0.207,0.535,0.207c0.385,0,0.578-0.276,0.578-0.828l-0.33-44.185
		c0-0.549,0.275-0.826,0.828-0.826h6.275c0.551,0,0.826,0.277,0.826,0.826v54.509c0,0.551-0.275,0.827-0.826,0.827H431.325z"/>
	<g>
		<path fill="#009FE3" d="M236.333,13.983h-38.82c-0.414,0-0.75,0.336-0.75,0.75v1.571c0,0.414,0.336,0.75,0.75,0.75h38.82
			c0.414,0,0.75-0.336,0.75-0.75v-1.571C237.083,14.319,236.747,13.983,236.333,13.983z"/>
		<path fill="#009FE3" d="M252.69,5.696h-71.535c-0.414,0-0.75,0.336-0.75,0.75v1.436c0,0.414,0.336,0.75,0.75,0.75h71.535
			c0.414,0,0.75-0.336,0.75-0.75V6.446C253.44,6.032,253.104,5.696,252.69,5.696z"/>
	</g>
	<path fill="#005095" d="M66.025,55.305c0-0.549,0.275-0.826,0.827-0.826h25.025c0.549,0,0.824,0.276,0.824,0.826v3.469
		c0,0.55-0.275,0.825-0.824,0.825H72.55c-0.329,0-0.495,0.166-0.495,0.495v18.585c0,0.329,0.166,0.495,0.495,0.495h18.252
		c0.552,0,0.827,0.275,0.827,0.826v3.137c0,0.551-0.275,0.827-0.827,0.827H72.55c-0.329,0-0.495,0.165-0.495,0.495v20.564
		c0,0.332,0.166,0.496,0.495,0.496h20.813c0.549,0,0.826,0.277,0.826,0.826v3.468c0,0.552-0.277,0.827-0.826,0.827H66.853
		c-0.552,0-0.827-0.275-0.827-0.827V55.305z"/>
	<path fill="#005095" d="M356.641,55.305c0-0.549,0.275-0.826,0.826-0.826h25.025c0.549,0,0.824,0.276,0.824,0.826v3.469
		c0,0.55-0.275,0.825-0.824,0.825h-19.328c-0.328,0-0.494,0.166-0.494,0.495v18.585c0,0.329,0.166,0.495,0.494,0.495h18.254
		c0.551,0,0.826,0.275,0.826,0.826v3.137c0,0.551-0.275,0.827-0.826,0.827h-18.254c-0.328,0-0.494,0.165-0.494,0.495v20.564
		c0,0.332,0.166,0.496,0.494,0.496h20.814c0.549,0,0.826,0.277,0.826,0.826v3.468c0,0.552-0.277,0.827-0.826,0.827h-26.512
		c-0.551,0-0.826-0.275-0.826-0.827V55.305z"/>
</g>
<g>
</g>
<g>
</g>
<g>
</g>
<g>
</g>
<g>
</g>
<g>
</g>
</svg>
