<?xml version="1.0" encoding="utf-8"?>
<!-- Generator: Adobe Illustrator 16.0.3, SVG Export Plug-In . SVG Version: 6.00 Build 0)  -->
<!DOCTYPE svg PUBLIC "-//W3C//DTD SVG 1.1//EN" "http://www.w3.org/Graphics/SVG/1.1/DTD/svg11.dtd">
<svg version="1.1" id="Ebene_1" xmlns="http://www.w3.org/2000/svg" xmlns:xlink="http://www.w3.org/1999/xlink" x="0px" y="0px"
	 width="461.641px" height="120.324px" viewBox="0 0 461.641 120.324" enable-background="new 0 0 461.641 120.324"
	 xml:space="preserve">
<g>
	<path fill="#003D7C" d="M27.793,110.302c1.821,0,3.476-0.082,4.965-0.248c1.491-0.164,2.704-0.414,3.642-0.744
		c0.277-0.111,0.428-0.209,0.456-0.291c0.027-0.082,0.043-0.207,0.043-0.373V86.958c0-0.332-0.166-0.496-0.499-0.496H26.302
		c-0.553,0-0.828-0.277-0.828-0.83v-1.654c0-0.551,0.275-0.828,0.828-0.828h13.74c0.553,0,0.828,0.277,0.828,0.828v26.904
		c0,0.441-0.166,0.719-0.496,0.826c-1.215,0.553-2.802,1.023-4.76,1.408c-1.959,0.383-4.595,0.578-7.904,0.578
		c-4.195,0-7.645-0.662-10.348-1.986c-2.706-1.324-4.844-3.229-6.416-5.711c-1.574-2.482-2.662-5.477-3.27-8.982
		c-0.607-3.504-0.911-7.461-0.911-11.879c0-4.523,0.386-8.594,1.159-12.209c0.771-3.615,2-6.691,3.685-9.229
		c1.682-2.54,3.849-4.5,6.496-5.879c2.649-1.379,5.823-2.07,9.521-2.07c2.428,0,4.689,0.139,6.789,0.413
		c2.095,0.278,3.862,0.61,5.297,0.994c0.276,0.057,0.413,0.304,0.413,0.746l-0.33,2.4c0,0.386-0.222,0.525-0.662,0.413
		c-1.435-0.387-3.187-0.717-5.257-0.992c-2.07-0.276-3.961-0.413-5.67-0.413c-3.313,0-6.086,0.579-8.32,1.737
		c-2.234,1.16-4.015,2.857-5.34,5.092c-1.324,2.234-2.264,4.953-2.813,8.152c-0.553,3.203-0.829,6.846-0.829,10.928
		c0,3.809,0.249,7.258,0.745,10.348s1.365,5.727,2.607,7.904c1.242,2.182,2.953,3.863,5.133,5.049
		C21.568,109.71,24.368,110.302,27.793,110.302z"/>
	<path fill="#005095" d="M64.71,57.407c0-0.553,0.275-0.829,0.828-0.829H88.55c0.553,0,0.829,0.276,0.829,0.829v1.818
		c0,0.553-0.276,0.831-0.829,0.831H69.181c-0.33,0-0.496,0.164-0.496,0.494v20.861c0,0.332,0.166,0.498,0.496,0.498h18.294
		c0.55,0,0.829,0.273,0.829,0.826v1.658c0,0.549-0.279,0.826-0.829,0.826H69.181c-0.33,0-0.496,0.166-0.496,0.496v23.178
		c0,0.33,0.166,0.496,0.496,0.496h20.86c0.55,0,0.827,0.279,0.827,0.83v1.82c0,0.553-0.277,0.826-0.827,0.826H65.538
		c-0.553,0-0.828-0.273-0.828-0.826V57.407z"/>
	<path fill="#005095" d="M370.523,57.407c0-0.553,0.276-0.829,0.828-0.829h23.013c0.552,0,0.828,0.276,0.828,0.829v1.818
		c0,0.553-0.276,0.831-0.828,0.831h-19.37c-0.33,0-0.496,0.164-0.496,0.494v20.861c0,0.332,0.166,0.498,0.496,0.498h18.294
		c0.551,0,0.829,0.273,0.829,0.826v1.658c0,0.549-0.278,0.826-0.829,0.826h-18.294c-0.33,0-0.496,0.166-0.496,0.496v23.178
		c0,0.33,0.166,0.496,0.496,0.496h20.86c0.551,0,0.827,0.279,0.827,0.83v1.82c0,0.553-0.276,0.826-0.827,0.826h-24.503
		c-0.552,0-0.828-0.273-0.828-0.826V57.407z"/>
	<path fill="#003D7C" d="M445.438,112.867c-0.387,0-0.648-0.094-0.786-0.287c-0.139-0.193-0.289-0.512-0.456-0.951l-21.604-50.912
		c-0.112-0.273-0.207-0.453-0.29-0.539c-0.083-0.081-0.263-0.121-0.539-0.121s-0.442,0.054-0.496,0.164
		c-0.056,0.109-0.083,0.249-0.083,0.415v51.405c0,0.553-0.276,0.826-0.828,0.826h-2.234c-0.553,0-0.829-0.273-0.829-0.826V57.407
		c0-0.553,0.276-0.829,0.829-0.829h6.209c0.55,0,0.936,0.33,1.158,0.995l21.191,50.413c0.22,0.439,0.372,0.715,0.455,0.826
		c0.084,0.111,0.234,0.166,0.456,0.166c0.33,0,0.496-0.166,0.496-0.498V57.407c0-0.553,0.274-0.829,0.827-0.829h2.236
		c0.55,0,0.826,0.276,0.826,0.829v54.634c0,0.553-0.276,0.826-0.826,0.826H445.438z"/>
	<g>
		<path fill="#004F9F" d="M126.464,62.869c-1.768,0-3.258,0.111-4.471,0.332c-1.215,0.219-2.194,0.607-2.939,1.158
			c-0.744,0.553-1.283,1.285-1.613,2.193c-0.332,0.91-0.498,2.057-0.498,3.436c0,0.775,0.07,1.49,0.209,2.154
			c0.137,0.66,0.453,1.352,0.952,2.068c0.66,0.938,1.875,2.057,3.642,3.352c1.766,1.299,3.917,2.857,6.457,4.678
			c2.316,1.602,4.318,3.146,6.002,4.635c1.682,1.492,2.964,2.953,3.849,4.389c0.772,1.268,1.226,2.512,1.365,3.725
			c0.138,1.213,0.206,2.373,0.206,3.477c0,5.246-1.268,9.051-3.808,11.426c-2.538,2.371-6.402,3.557-11.589,3.557
			c-2.648,0-5.408-0.152-8.277-0.453c-2.87-0.305-5.326-0.705-7.367-1.199c-0.277-0.057-0.414-0.307-0.414-0.746l0.33-5.381
			c0-0.387,0.221-0.525,0.663-0.416c4.801,0.83,9.575,1.242,14.321,1.242c1.325,0,2.495-0.109,3.518-0.332
			c1.021-0.221,1.877-0.605,2.566-1.158c0.689-0.551,1.213-1.293,1.574-2.234c0.356-0.938,0.536-2.123,0.536-3.559
			c0-0.773-0.056-1.615-0.166-2.525s-0.413-1.725-0.909-2.443c-0.662-0.938-1.877-2.055-3.643-3.352
			c-1.768-1.295-3.918-2.854-6.456-4.678c-2.319-1.6-4.347-3.145-6.085-4.635s-3.05-2.951-3.932-4.387
			c-0.773-1.27-1.229-2.471-1.365-3.604c-0.14-1.129-0.207-2.244-0.207-3.35c0-2.596,0.344-4.787,1.033-6.582
			c0.689-1.793,1.74-3.229,3.146-4.305c1.408-1.078,3.2-1.848,5.38-2.317c2.181-0.47,4.761-0.705,7.74-0.705
			c1.213,0,2.455,0.056,3.727,0.166c1.268,0.112,2.469,0.247,3.602,0.413c1.129,0.166,2.164,0.346,3.104,0.539
			c0.938,0.193,1.654,0.373,2.152,0.539c0.164,0.11,0.274,0.193,0.33,0.247c0.055,0.056,0.084,0.222,0.084,0.498l-0.332,5.048
			c0,0.113-0.055,0.236-0.164,0.373c-0.113,0.141-0.279,0.152-0.499,0.041c-0.496-0.166-1.199-0.33-2.11-0.494
			c-0.91-0.166-1.902-0.318-2.98-0.457c-1.075-0.135-2.193-0.234-3.353-0.289C128.614,62.9,127.511,62.869,126.464,62.869z"/>
		<path fill="#0075BF" d="M166.032,63.863c0-0.33-0.166-0.496-0.498-0.496H153.78c-0.553,0-0.828-0.277-0.828-0.828v-5.132
			c0-0.553,0.275-0.829,0.828-0.829h32.614c0.553,0,0.829,0.276,0.829,0.829v5.132c0,0.551-0.276,0.828-0.829,0.828H174.64
			c-0.33,0-0.496,0.166-0.496,0.496v48.178c0,0.553-0.277,0.826-0.826,0.826h-6.459c-0.553,0-0.826-0.273-0.826-0.826V63.863z"/>
		<path fill="#0075BF" d="M286.751,56.578c3.975,0,7.188,0.883,9.645,2.647c2.455,1.77,4.359,4.017,5.711,6.749
			s2.276,5.768,2.773,9.105c0.498,3.342,0.745,6.553,0.745,9.643c0,3.094-0.247,6.305-0.745,9.646
			c-0.497,3.336-1.422,6.373-2.773,9.104c-1.352,2.732-3.256,4.98-5.711,6.748c-2.456,1.766-5.67,2.646-9.645,2.646h-20.445
			c-0.553,0-0.828-0.273-0.828-0.826V57.407c0-0.553,0.275-0.829,0.828-0.829H286.751z M297.348,84.308
			c0-2.646-0.18-5.268-0.539-7.863c-0.358-2.592-0.979-4.908-1.861-6.953c-0.885-2.041-2.1-3.695-3.642-4.967
			c-1.548-1.268-3.506-1.904-5.879-1.904h-11.34c-0.33,0-0.497,0.166-0.497,0.496v43.131c0,0.33,0.138,0.494,0.413,0.494h11.507
			c2.373,0,4.317-0.66,5.836-1.986c1.518-1.324,2.717-3.035,3.602-5.133c0.883-2.098,1.503-4.482,1.861-7.158
			C297.168,89.787,297.348,87.07,297.348,84.308z"/>
		<path fill="#004F9F" d="M331.619,63.863c0-0.33-0.166-0.496-0.498-0.496h-11.753c-0.553,0-0.829-0.277-0.829-0.828v-5.132
			c0-0.553,0.276-0.829,0.829-0.829h32.613c0.553,0,0.829,0.276,0.829,0.829v5.132c0,0.551-0.276,0.828-0.829,0.828h-11.755
			c-0.33,0-0.496,0.166-0.496,0.496v48.178c0,0.553-0.276,0.826-0.827,0.826h-6.458c-0.552,0-0.826-0.273-0.826-0.826V63.863z"/>
		<g>
			<path fill="#009FE3" d="M243.568,112.439c-0.25-1.213-9.154-72.593-9.611-74.634c-0.123-0.553-0.373-0.829-0.745-0.829h-15.999
				c-0.372,0-0.62,0.276-0.745,0.829c-0.457,1.818-9.818,72.978-10.107,74.634c-0.124,0.553,0.021,0.826,0.437,0.826h6.912
				c0.372,0,0.643-0.273,0.808-0.826c0,0,8.976-66.33,9.391-68.262c0.042-0.332,0.414-0.496,1.118-0.496
				c0.706,0,1.079,0.164,1.121,0.496c0.373,1.932,8.644,68.262,8.644,68.262c0.082,0.553,0.351,0.826,0.808,0.826h7.535
				C243.546,113.265,243.692,112.992,243.568,112.439z"/>
			<g>
				<path fill="#009FE3" d="M241.885,18.097h-33.841c-0.414,0-0.75,0.336-0.75,0.75v5.669c0,0.414,0.336,0.75,0.75,0.75h33.841
					c0.414,0,0.75-0.336,0.75-0.75v-5.669C242.635,18.433,242.299,18.097,241.885,18.097z"/>
				<path fill="#009FE3" d="M256.146,6.802h-62.362c-0.414,0-0.75,0.336-0.75,0.75v5.669c0,0.414,0.336,0.75,0.75,0.75h62.362
					c0.414,0,0.75-0.336,0.75-0.75V7.552C256.896,7.138,256.56,6.802,256.146,6.802z"/>
			</g>
		</g>
	</g>
</g>
<g>
</g>
<g>
</g>
<g>
</g>
<g>
</g>
<g>
</g>
<g>
</g>
</svg>
