<svg xmlns="http://www.w3.org/2000/svg" width="289.646" height="54.442" viewBox="0 0 289.646 54.442001"><path d="M11.743 36.412c-2.758-1.595-3.463-2.393-3.463-3.775 0-1.436 1.057-2.711 3.229-2.711 1.527 0 2.818.479 3.934 1.117l1.291-4.201c-1.409-.691-3.17-1.277-5.518-1.277-5.106 0-8.746 3.298-8.746 7.764 0 2.606 1.584 5.105 5.811 7.392 2.642 1.541 3.463 2.605 3.463 4.201 0 1.862-1.349 2.978-3.58 2.978-1.878 0-3.874-.744-4.931-1.382L2 50.718c1.292.903 3.875 1.49 6.105 1.49 5.399 0 9.45-2.713 9.45-7.977 0-3.194-1.996-5.745-5.812-7.819zm44.422 9.702c0 2.021.056 4.201.344 5.902H50.98l-.347-2.659h-.115c-1.439 2.021-3.514 3.085-5.934 3.085-4.032 0-7.085-3.137-7.085-7.657 0-6.647 6.107-9.464 12.443-9.519v-.69c0-2.659-1.151-4.573-4.205-4.573-2.016 0-3.687.532-5.242 1.435l-1.152-3.882c1.383-.797 4.32-1.861 7.72-1.861 7.258 0 9.103 4.574 9.103 10.104v10.315zm-6.049-7.071c-2.419.054-6.74.638-6.74 5.158 0 2.924 1.67 3.988 3.053 3.988 1.498 0 2.996-.958 3.514-2.979.116-.372.173-.851.173-1.328v-4.839z" fill="#2a62ac"/><path d="M119.203 51.062c-1.12.463-3.283.925-5.059.925-2.665 0-4.865-.733-6.604-2.547-2.046-2.125-3.283-5.831-3.244-10.466.078-9.769 5.407-13.477 10.503-13.477 1.814 0 3.205.348 4.016.773l-.811 3.553c-.695-.387-1.661-.618-2.973-.618-3.36 0-6.449 2.471-6.449 9.809 0 7.065 2.703 9.46 5.406 9.46.695 0 1.159-.078 1.39-.193v-7.298h-2.78v-3.36h6.603v13.439zm15.603-11.161h-6.179v8.264h7.028v3.591h-11.16V25.73h10.697v3.592h-6.565v7.143h6.179v3.436zm5.021 7.453c.966.579 2.665 1.042 4.016 1.042 2.549 0 3.938-1.507 3.938-3.629 0-2.086-1.274-3.283-3.398-4.75-2.896-1.854-4.904-4.44-4.904-7.26 0-4.054 2.742-7.26 7.607-7.26 1.66 0 3.205.503 3.9.927l-.773 3.552c-.695-.462-1.814-.888-3.205-.888-2.356 0-3.475 1.584-3.475 3.167 0 2.008 1.042 2.935 3.707 4.634 3.282 2.163 4.595 4.672 4.595 7.453 0 4.672-3.321 7.645-7.994 7.645-1.969 0-3.9-.54-4.711-1.081l.697-3.552zm19.503-17.84h-4.673v-3.785h13.515v3.785h-4.711v22.242h-4.131V29.514zm35.531-3.784h4.131v22.552h6.951v3.475H194.86V25.73zm16.027 3.784h-4.673v-3.785h13.516v3.785h-4.712v22.242h-4.131V29.514zm31.692 22.243V25.73h3.824l4.363 11.122c.888 2.355 2.201 5.714 3.012 8.224h.078c-.193-3.321-.424-7.336-.424-12.009V25.73h3.63v26.027h-3.825l-4.401-11.083c-.927-2.394-2.086-5.521-2.819-8.264h-.077c.155 3.014.309 6.681.309 12.088v7.259h-3.67zm-58.132-36.958h-6.646l-4.27 36.874h4.016l3.362-31.651h.332l2.466 31.651h4.016z" fill="#444f50"/><path d="M62.579 26.072c1.399-.311 3.434-.504 5.637-.504 3.603 0 6.104.775 7.926 2.327 2.458 2.017 3.73 5.469 3.73 10.549 0 5.275-1.483 9.037-3.984 11.054-1.908 1.707-4.747 2.521-8.731 2.521-1.737 0-3.475-.154-4.578-.271V26.072zm5.552 21.718c.254.078.678.078.975.078 2.67 0 5.001-2.404 5.001-9.618 0-5.353-1.525-8.61-4.874-8.61-.382 0-.763 0-1.102.117V47.79zm19.582-17.413h-5.044v-4.693h15.682v4.693h-5.086v21.448h-5.552V30.377zm-62.616.104h-5.043v-4.693h15.682v4.693H30.65v21.447h-5.552V30.481z" fill="#2a62ac"/><path d="M226.858 39.813c.333 7.151 2.612 8.106 5.156 8.205 1.511.058 2.116.007 3.574-.401l.972 3.339c-1.238.797-3.16 1.054-5.279.91-5.303-.36-8.064-5.046-8.064-12.907 0-8.339 3.023-13.544 7.469-13.544 4.537 0 6.324 5.524 6.324 11.366 0 .956 0 1.647.01 3.059l-10.162-.027zm6.598-3.826c.092-5.151-1.409-6.707-3.104-6.707-2.292 0-3.245 3.257-3.382 6.763l6.486-.056zm36.414-10.138v3.831h1.943v-3.831h1.859v9.562h-1.859v-4h-1.943v4h-1.859v-9.562h1.859zm5.446.142c.58-.113 1.319-.184 2.027-.184 1.022 0 1.93.141 2.554.708.582.525.752 1.164.752 1.986 0 1.021-.497 1.944-1.475 2.397v.029c.652.255.978.866 1.162 1.886.185 1.064.44 2.242.61 2.596h-1.943c-.114-.269-.327-1.234-.468-2.283-.17-1.192-.469-1.533-1.093-1.533h-.27v3.816h-1.857v-9.418zm1.858 4.171h.326c.809 0 1.276-.652 1.276-1.489 0-.81-.325-1.39-1.162-1.419-.156 0-.341.014-.44.057v2.851zm10.455.298c0 3.604-1.277 5.065-3.094 5.065-2.17 0-3.021-2.298-3.021-4.923 0-2.611 1.035-4.866 3.15-4.866 2.312 0 2.965 2.54 2.965 4.724zm-4.185.171c0 2.17.41 3.277 1.162 3.277.78 0 1.078-1.418 1.078-3.363 0-1.674-.255-3.191-1.093-3.191-.737 0-1.147 1.219-1.147 3.277zm-9.634 15.628c0 3.792-1.344 5.329-3.255 5.329-2.283 0-3.179-2.418-3.179-5.18 0-2.747 1.09-5.12 3.314-5.12 2.434 0 3.12 2.672 3.12 4.971zm-4.403.179c0 2.284.432 3.449 1.223 3.449.821 0 1.135-1.493 1.135-3.539 0-1.761-.269-3.358-1.15-3.358-.776 0-1.208 1.283-1.208 3.448zm5.641-4.882a11.734 11.734 0 0 1 2.135-.193c1.075 0 2.03.148 2.688.746.612.552.791 1.224.791 2.089 0 1.075-.522 2.046-1.553 2.523v.03c.687.269 1.03.911 1.225 1.985.194 1.12.462 2.358.642 2.732h-2.045c-.119-.284-.343-1.299-.492-2.403-.18-1.254-.493-1.613-1.15-1.613h-.284v4.016h-1.955v-9.912zm1.955 4.389h.345c.851 0 1.344-.686 1.344-1.567 0-.851-.344-1.463-1.225-1.493-.164 0-.358.015-.464.06v3zm10.642 5.255c-.432.179-1.358.357-2.09.357-1.148 0-2.015-.328-2.687-1-.865-.836-1.328-2.329-1.299-4.061.045-3.657 2.136-5.18 4.27-5.18.761 0 1.328.149 1.642.298l-.343 1.689c-.283-.135-.656-.225-1.148-.225-1.328 0-2.389.911-2.389 3.538 0 2.419.94 3.284 1.852 3.284.18 0 .313-.014.388-.044v-2.433h-.896v-1.598h2.701V51.2zm-19.956-13.81h19.859v2.213h-19.859zM170.462 7.985h21.26v3.406h-21.26zM162.364 2h37.993v3.406h-37.993z" fill="#444f50"/></svg>