<?xml version="1.0" encoding="UTF-8" standalone="no"?>
<svg
   xmlns:i="&amp;ns_ai;"
   xmlns:dc="http://purl.org/dc/elements/1.1/"
   xmlns:cc="http://creativecommons.org/ns#"
   xmlns:rdf="http://www.w3.org/1999/02/22-rdf-syntax-ns#"
   xmlns:svg="http://www.w3.org/2000/svg"
   xmlns="http://www.w3.org/2000/svg"
   xmlns:sodipodi="http://sodipodi.sourceforge.net/DTD/sodipodi-0.dtd"
   xmlns:inkscape="http://www.inkscape.org/namespaces/inkscape"
   sodipodi:docname="logo_text.svg"
   height="1320"
   width="1500"
   version="1.1"
   inkscape:version="0.92.4 (5da689c313, 2019-01-14)"
   id="svg14"
   viewBox="0 0 1500 1320">
  <defs
     id="defs16" />
  <metadata
     id="metadata2">
    <rdf:RDF>
      <cc:Work
         rdf:about="">
        <dc:format>image/svg+xml</dc:format>
        <dc:type
           rdf:resource="http://purl.org/dc/dcmitype/StillImage" />
        <dc:title></dc:title>
      </cc:Work>
    </rdf:RDF>
  </metadata>
  <sodipodi:namedview
     bordercolor="#666666"
     inkscape:pageshadow="2"
     guidetolerance="10"
     pagecolor="#ffffff"
     gridtolerance="10"
     inkscape:window-maximized="1"
     inkscape:zoom="0.35757576"
     objecttolerance="10"
     borderopacity="1"
     inkscape:current-layer="svg14"
     inkscape:cx="493.85592"
     inkscape:cy="162.20339"
     inkscape:window-y="24"
     inkscape:window-x="0"
     inkscape:window-width="1600"
     showgrid="false"
     inkscape:pageopacity="0"
     inkscape:window-height="857"
     id="namedview4" />
  <g
     id="g3726"
     transform="matrix(2.0000188,0,0,2.0000188,-5.0070419,4.987639)">
    <polygon
       style="fill:none;stroke:#000000;stroke-width:95;stroke-linejoin:round"
       id="polygon6"
       points="375,50 50,610 700,610 " />
    <polygon
       style="fill:none;stroke:#ffffff;stroke-width:90;stroke-linejoin:round"
       id="polygon8"
       points="375,50 50,610 700,610 " />
    <polygon
       style="fill:#ffffff;stroke:#cc0000;stroke-width:70;stroke-linejoin:round"
       id="polygon10"
       points="375,50 50,610 700,610 " />
    <path
       style="fill:#040404"
       inkscape:connector-curvature="0"
       id="path12"
       d="m 341,345 c -7,0 -19,2 -33,7 -9,3 -18,6 -22,6 -16,2 -22,6 -22,15 0,5 5,15 10,19 6,6 25,21 30,24 2,2 5,4 5,4 0,1 8,6 18,13 16,10 20,15 15,15 -4,0 -43,-27 -62,-43 -8,-7 -10,-6 -5,4 6,14 29,33 59,47 9,5 10,5 11,10 2,11 1,12 -7,12 -4,1 -11,2 -16,4 l -8,3 -8,-3 c -6,-2 -10,-5 -14,-9 -3,-3 -6,-6 -8,-6 -3,0 -9,5 -9,9 0,4 5,8 10,8 2,0 4,1 4,2 0,2 -3,4 -8,3 -8,-1 -13,5 -8,10 2,3 7,3 11,1 2,-1 3,-1 4,2 2,2 1,5 -2,5 -5,0 -8,9 -4,14 5,7 16,2 16,-7 0,-1 2,-1 5,-1 13,3 32,0 47,-7 l 9,-4 6,3 c 4,2 8,3 15,4 9,1 10,1 11,4 1,4 1,4 -1,4 -4,0 -8,4 -7,7 0,1 1,2 2,2 0,0 2,1 3,2 2,2 2,2 0,6 -2,4 -2,4 0,6 2,1 4,2 5,2 3,-1 4,1 2,2 -2,1 -1,5 1,7 2,2 3,2 8,-3 3,-2 9,-5 16,-8 21,-7 41,-16 54,-23 7,-4 18,-10 24,-14 7,-3 13,-7 14,-8 3,-4 1,-9 -4,-12 -6,-4 -5,-5 3,-5 12,0 18,-5 18,-15 0,-4 -2,-6 -13,-17 -24,-22 -47,-40 -53,-40 -2,0 -5,-2 -8,-4 -5,-6 -8,-7 -16,-9 -8,-1 -14,-3 -53,-22 -28,-14 -33,-16 -35,-21 -2,-2 -4,-5 -6,-5 z m -27,25 h 2 c 2,1 2,2 -1,3 -6,3 -8,13 -3,20 1,2 2,4 2,4 -3,-1 -10,-5 -12,-7 -5,-8 -3,-15 6,-19 2,-1 4,-1 6,-1 z m 34,1 c 2,0 6,2 16,10 33,27 67,50 101,69 5,3 8,5 8,7 0,5 -2,4 -32,-14 -40,-24 -97,-67 -95,-71 1,-1 1,-1 2,-1 z m -25,0 c 1,0 2,0 3,1 6,3 10,8 10,12 0,6 -1,9 -5,11 -5,2 -9,3 -12,2 -2,-1 -2,-1 -1,-1 1,0 4,-2 6,-5 4,-5 4,-12 1,-17 -2,-2 -3,-3 -2,-3 z m 138,36 c 1,0 2,3 3,9 1,8 9,18 22,29 19,17 21,18 21,21 0,3 -4,4 -5,0 0,-1 -6,-7 -13,-13 -16,-12 -20,-16 -24,-23 -4,-7 -7,-20 -5,-22 0,0 0,-1 1,-1 z m -121,15 c 1,0 3,1 6,3 5,3 10,8 20,23 16,23 21,27 34,27 8,0 11,-1 18,-5 8,-4 9,-4 13,-2 7,3 6,5 -1,4 -5,-1 -7,0 -12,3 -5,3 -8,3 -15,4 -18,1 -23,-3 -45,-35 -6,-7 -11,-13 -14,-15 -3,-2 -6,-4 -6,-4 -1,-1 0,-1 1,-2 0,-1 0,-1 1,-1 z m 127,57 h 5 c 18,0 22,1 22,3 0,2 -4,2 -17,2 -18,-1 -24,0 -52,7 -21,6 -26,9 -24,15 2,6 12,10 20,9 15,-1 26,-2 30,-1 7,3 3,4 -9,4 -7,0 -16,1 -21,1 -8,1 -10,0 -15,-2 -12,-5 -13,-19 -1,-24 2,-1 15,-5 28,-8 19,-5 23,-6 34,-6 z" />
  </g>
</svg>
